<svg width="160" height="54" viewBox="0 0 160 54" fill="none" xmlns="http://www.w3.org/2000/svg">
<path d="M58.4235 22.3771L51.5858 25.6822C51.4593 25.7433 51.3215 25.7771 51.1811 25.7814L13.5394 26.9309C13.3213 26.9375 13.1069 26.8727 12.9291 26.7461L6.87023 22.4346C6.28255 22.0164 6.31742 21.1326 6.93622 20.762L31.6525 5.95932C31.9617 5.77415 32.3466 5.76967 32.66 5.9476L58.4821 20.6071C59.183 21.005 59.1493 22.0263 58.4235 22.3771Z" fill="#9328FF"/>
<path d="M75.052 32.432C73.204 32.432 71.572 32.12 70.156 31.496C68.74 30.848 67.624 29.936 66.808 28.76C65.992 27.56 65.572 26.108 65.548 24.404H70.408C70.456 25.58 70.876 26.576 71.668 27.392C72.484 28.184 73.6 28.58 75.016 28.58C76.24 28.58 77.212 28.292 77.932 27.716C78.652 27.116 79.012 26.324 79.012 25.34C79.012 24.308 78.688 23.504 78.04 22.928C77.416 22.352 76.576 21.884 75.52 21.524C74.464 21.164 73.336 20.78 72.136 20.372C70.192 19.7 68.704 18.836 67.672 17.78C66.664 16.724 66.16 15.32 66.16 13.568C66.136 12.08 66.484 10.808 67.204 9.752C67.948 8.672 68.956 7.844 70.228 7.268C71.5 6.668 72.964 6.368 74.62 6.368C76.3 6.368 77.776 6.668 79.048 7.268C80.344 7.868 81.352 8.708 82.072 9.788C82.816 10.868 83.212 12.152 83.26 13.64H78.328C78.304 12.752 77.956 11.972 77.284 11.3C76.636 10.604 75.724 10.256 74.548 10.256C73.54 10.232 72.688 10.484 71.992 11.012C71.32 11.516 70.984 12.26 70.984 13.244C70.984 14.084 71.248 14.756 71.776 15.26C72.304 15.74 73.024 16.148 73.936 16.484C74.848 16.82 75.892 17.18 77.068 17.564C78.316 17.996 79.456 18.5 80.488 19.076C81.52 19.652 82.348 20.42 82.972 21.38C83.596 22.316 83.908 23.528 83.908 25.016C83.908 26.336 83.572 27.56 82.9 28.688C82.228 29.816 81.232 30.728 79.912 31.424C78.592 32.096 76.972 32.432 75.052 32.432ZM87.9285 32V6.8H97.1805C99.1965 6.8 100.852 7.148 102.148 7.844C103.468 8.516 104.452 9.44 105.1 10.616C105.748 11.768 106.072 13.052 106.072 14.468C106.072 16.004 105.664 17.408 104.848 18.68C104.056 19.952 102.808 20.876 101.104 21.452L106.324 32H101.032L96.3525 22.064H92.5365V32H87.9285ZM92.5365 18.68H96.8925C98.4285 18.68 99.5565 18.308 100.276 17.564C100.996 16.82 101.356 15.836 101.356 14.612C101.356 13.412 100.996 12.452 100.276 11.732C99.5805 11.012 98.4405 10.652 96.8565 10.652H92.5365V18.68ZM110.358 32V6.8H114.966V32H110.358ZM128.454 32.432C126.606 32.432 124.974 32.12 123.558 31.496C122.142 30.848 121.026 29.936 120.21 28.76C119.394 27.56 118.974 26.108 118.95 24.404H123.81C123.858 25.58 124.278 26.576 125.07 27.392C125.886 28.184 127.002 28.58 128.418 28.58C129.642 28.58 130.614 28.292 131.334 27.716C132.054 27.116 132.414 26.324 132.414 25.34C132.414 24.308 132.09 23.504 131.442 22.928C130.818 22.352 129.978 21.884 128.922 21.524C127.866 21.164 126.738 20.78 125.538 20.372C123.594 19.7 122.106 18.836 121.074 17.78C120.066 16.724 119.562 15.32 119.562 13.568C119.538 12.08 119.886 10.808 120.606 9.752C121.35 8.672 122.358 7.844 123.63 7.268C124.902 6.668 126.366 6.368 128.022 6.368C129.702 6.368 131.178 6.668 132.45 7.268C133.746 7.868 134.754 8.708 135.474 9.788C136.218 10.868 136.614 12.152 136.662 13.64H131.73C131.706 12.752 131.358 11.972 130.686 11.3C130.038 10.604 129.126 10.256 127.95 10.256C126.942 10.232 126.09 10.484 125.394 11.012C124.722 11.516 124.386 12.26 124.386 13.244C124.386 14.084 124.65 14.756 125.178 15.26C125.706 15.74 126.426 16.148 127.338 16.484C128.25 16.82 129.294 17.18 130.47 17.564C131.718 17.996 132.858 18.5 133.89 19.076C134.922 19.652 135.75 20.42 136.374 21.38C136.998 22.316 137.31 23.528 137.31 25.016C137.31 26.336 136.974 27.56 136.302 28.688C135.63 29.816 134.634 30.728 133.314 31.424C131.994 32.096 130.374 32.432 128.454 32.432ZM146.882 32V10.508H139.538V6.8H158.87V10.508H151.49V32H146.882Z" fill="#170F49"/>
<rect x="16.8271" y="24" width="31.3452" height="18.0457" fill="#4A3AFF"/>
<path d="M50.0993 39.8587V26.7382C50.0993 24.3328 42.2771 22.3647 32.4994 22.3647C22.7216 22.3647 14.8994 24.3328 14.8994 26.7382V39.8587" stroke="#4A3AFF" stroke-width="4.5" stroke-miterlimit="10" stroke-linecap="round" stroke-linejoin="round"/>
<path d="M50.0997 27.3944L61.7768 23.0973C62.5702 22.8053 62.6658 21.7217 61.9358 21.2953L34.5171 5.2817C33.2707 4.55377 31.7288 4.55377 30.4824 5.2817L3.06375 21.2953C2.33371 21.7217 2.42932 22.8053 3.22273 23.0973L14.8998 27.3944M2.85641 21.6551V34.4811M32.4998 35.1489C22.7807 35.1489 14.8998 37.106 14.8998 39.5224C14.8998 41.9387 22.7807 43.8959 32.4998 43.8959C42.2188 43.8959 50.0997 41.9387 50.0997 39.5224C50.0997 37.106 42.2188 35.1489 32.4998 35.1489Z" stroke="#4A3AFF" stroke-width="4.5" stroke-miterlimit="10" stroke-linecap="round" stroke-linejoin="round"/>
<path fill-rule="evenodd" clip-rule="evenodd" d="M29.3478 3.33888C31.2953 2.20149 33.7045 2.20149 35.6519 3.33888L63.0563 19.3441C65.4368 20.7344 65.1141 24.2708 62.5213 25.2073L52.9796 28.6536L51.4509 24.4212L58.4797 21.8825L33.3824 7.22469C32.8372 6.90622 32.1626 6.90622 31.6173 7.22469L6.49334 21.8981L13.5139 24.4733L11.9642 28.698L5.10653 26.1826V36.7312H0.606527V23.5005C-0.0253299 22.0833 0.377202 20.2589 1.93161 19.3511L29.3478 3.33888Z" fill="#9328FF"/>
<path d="M71.8486 45.0576V47H65.7642V45.0576H71.8486ZM66.5693 34.9141V47H64.0791V34.9141H66.5693ZM81.2607 47.166C80.5635 47.166 79.9382 47.0553 79.3848 46.834C78.8314 46.6071 78.361 46.2944 77.9736 45.896C77.5918 45.4976 77.2985 45.0355 77.0938 44.5098C76.889 43.9785 76.7866 43.4141 76.7866 42.8164V42.4844C76.7866 41.8037 76.8835 41.1812 77.0771 40.6167C77.2708 40.0522 77.5475 39.5625 77.9072 39.1475C78.2725 38.7324 78.7152 38.4142 79.2354 38.1929C79.7555 37.966 80.3421 37.8525 80.9951 37.8525C81.6315 37.8525 82.196 37.9577 82.6885 38.168C83.181 38.3783 83.5933 38.6771 83.9253 39.0645C84.2629 39.4518 84.5174 39.9167 84.689 40.459C84.8605 40.9958 84.9463 41.5934 84.9463 42.252V43.248H77.8076V41.6543H82.5972V41.4717C82.5972 41.1396 82.5363 40.8436 82.4146 40.5835C82.2983 40.3179 82.1213 40.1076 81.8833 39.9526C81.6453 39.7977 81.341 39.7202 80.9702 39.7202C80.6548 39.7202 80.3836 39.7894 80.1567 39.9277C79.9299 40.0661 79.7445 40.2598 79.6006 40.5088C79.4622 40.7578 79.3571 41.0511 79.2852 41.3887C79.2188 41.7207 79.1855 42.0859 79.1855 42.4844V42.8164C79.1855 43.1761 79.2354 43.5081 79.335 43.8125C79.4401 44.1169 79.5868 44.3797 79.7749 44.6011C79.9686 44.8224 80.201 44.994 80.4722 45.1157C80.7489 45.2375 81.0615 45.2983 81.4102 45.2983C81.8418 45.2983 82.243 45.2153 82.6138 45.0493C82.9901 44.8778 83.3138 44.6204 83.585 44.2773L84.7471 45.5391C84.5589 45.8102 84.3016 46.0703 83.9751 46.3193C83.6541 46.5684 83.2668 46.7731 82.813 46.9336C82.3592 47.0885 81.8418 47.166 81.2607 47.166ZM95.1553 44.9746V40.9736C95.1553 40.6859 95.1082 40.4396 95.0142 40.2349C94.9201 40.0246 94.7734 39.8613 94.5742 39.7451C94.3805 39.6289 94.1287 39.5708 93.8188 39.5708C93.5532 39.5708 93.3236 39.6178 93.1299 39.7119C92.9362 39.8005 92.7868 39.9305 92.6816 40.1021C92.5765 40.2681 92.5239 40.4645 92.5239 40.6914H90.1333C90.1333 40.3096 90.2218 39.9471 90.3989 39.604C90.576 39.2609 90.8333 38.9593 91.1709 38.6992C91.5085 38.4336 91.9097 38.2261 92.3745 38.0767C92.8449 37.9272 93.3706 37.8525 93.9517 37.8525C94.6489 37.8525 95.2687 37.9688 95.811 38.2012C96.3534 38.4336 96.7795 38.7822 97.0894 39.2471C97.4048 39.7119 97.5625 40.293 97.5625 40.9902V44.8335C97.5625 45.326 97.5929 45.73 97.6538 46.0454C97.7147 46.3553 97.8032 46.6265 97.9194 46.8589V47H95.5039C95.3877 46.7565 95.2992 46.4521 95.2383 46.0869C95.1829 45.7161 95.1553 45.3454 95.1553 44.9746ZM95.4707 41.5298L95.4873 42.8828H94.1509C93.8354 42.8828 93.5615 42.9188 93.3291 42.9907C93.0967 43.0627 92.9058 43.165 92.7563 43.2979C92.6069 43.4251 92.4963 43.5745 92.4243 43.7461C92.3579 43.9176 92.3247 44.1058 92.3247 44.3105C92.3247 44.5153 92.3717 44.7007 92.4658 44.8667C92.5599 45.0272 92.6955 45.1545 92.8726 45.2485C93.0496 45.3371 93.2572 45.3813 93.4951 45.3813C93.8548 45.3813 94.1675 45.3094 94.4331 45.1655C94.6987 45.0216 94.9035 44.8446 95.0474 44.6343C95.1968 44.424 95.2743 44.2248 95.2798 44.0366L95.9106 45.0493C95.8221 45.2762 95.7004 45.5114 95.5454 45.7549C95.396 45.9984 95.2051 46.228 94.9727 46.4438C94.7402 46.6541 94.4608 46.8285 94.1343 46.9668C93.8078 47.0996 93.4204 47.166 92.9722 47.166C92.4022 47.166 91.8848 47.0526 91.4199 46.8257C90.9606 46.5933 90.5954 46.2751 90.3242 45.8711C90.0586 45.4616 89.9258 44.9967 89.9258 44.4766C89.9258 44.0062 90.0143 43.5884 90.1914 43.2231C90.3685 42.8579 90.6286 42.5508 90.9717 42.3018C91.3203 42.0472 91.7547 41.8563 92.2749 41.729C92.7951 41.5962 93.3983 41.5298 94.0845 41.5298H95.4707ZM105.796 39.9775V47H103.405V38.0186H105.655L105.796 39.9775ZM108.502 37.9604L108.46 40.1768C108.344 40.1602 108.203 40.1463 108.037 40.1353C107.877 40.1187 107.73 40.1104 107.597 40.1104C107.26 40.1104 106.966 40.1546 106.717 40.2432C106.474 40.3262 106.269 40.4507 106.103 40.6167C105.943 40.7827 105.821 40.9847 105.738 41.2227C105.66 41.4606 105.616 41.7318 105.605 42.0361L105.124 41.8867C105.124 41.3057 105.182 40.7716 105.298 40.2847C105.414 39.7922 105.583 39.3633 105.804 38.998C106.031 38.6328 106.308 38.3506 106.634 38.1514C106.961 37.9521 107.334 37.8525 107.755 37.8525C107.888 37.8525 108.023 37.8636 108.162 37.8857C108.3 37.9023 108.413 37.9272 108.502 37.9604ZM115.972 39.936V47H113.581V38.0186H115.822L115.972 39.936ZM115.623 42.1938H114.976C114.976 41.5298 115.061 40.9321 115.233 40.4009C115.404 39.8641 115.645 39.4076 115.955 39.0312C116.265 38.6494 116.633 38.3589 117.059 38.1597C117.491 37.9549 117.972 37.8525 118.503 37.8525C118.924 37.8525 119.309 37.9134 119.657 38.0352C120.006 38.1569 120.305 38.3506 120.554 38.6162C120.808 38.8818 121.002 39.2332 121.135 39.6704C121.273 40.1076 121.342 40.6416 121.342 41.2725V47H118.935V41.2642C118.935 40.8657 118.88 40.5558 118.769 40.3345C118.658 40.1131 118.495 39.9582 118.279 39.8696C118.069 39.7756 117.809 39.7285 117.499 39.7285C117.178 39.7285 116.899 39.7922 116.661 39.9194C116.428 40.0467 116.235 40.2238 116.08 40.4507C115.93 40.672 115.817 40.9321 115.739 41.231C115.662 41.5298 115.623 41.8507 115.623 42.1938ZM129.684 38.0186V47H127.285V38.0186H129.684ZM127.135 35.6777C127.135 35.3291 127.257 35.0413 127.5 34.8145C127.744 34.5876 128.07 34.4741 128.48 34.4741C128.884 34.4741 129.208 34.5876 129.451 34.8145C129.7 35.0413 129.825 35.3291 129.825 35.6777C129.825 36.0264 129.7 36.3141 129.451 36.541C129.208 36.7679 128.884 36.8813 128.48 36.8813C128.07 36.8813 127.744 36.7679 127.5 36.541C127.257 36.3141 127.135 36.0264 127.135 35.6777ZM138 39.936V47H135.609V38.0186H137.851L138 39.936ZM137.651 42.1938H137.004C137.004 41.5298 137.09 40.9321 137.261 40.4009C137.433 39.8641 137.674 39.4076 137.983 39.0312C138.293 38.6494 138.661 38.3589 139.087 38.1597C139.519 37.9549 140 37.8525 140.532 37.8525C140.952 37.8525 141.337 37.9134 141.686 38.0352C142.034 38.1569 142.333 38.3506 142.582 38.6162C142.837 38.8818 143.03 39.2332 143.163 39.6704C143.301 40.1076 143.371 40.6416 143.371 41.2725V47H140.963V41.2642C140.963 40.8657 140.908 40.5558 140.797 40.3345C140.687 40.1131 140.523 39.9582 140.308 39.8696C140.097 39.7756 139.837 39.7285 139.527 39.7285C139.206 39.7285 138.927 39.7922 138.689 39.9194C138.457 40.0467 138.263 40.2238 138.108 40.4507C137.958 40.672 137.845 40.9321 137.768 41.231C137.69 41.5298 137.651 41.8507 137.651 42.1938ZM154.875 38.0186H157.041V46.7012C157.041 47.5202 156.858 48.2147 156.493 48.7847C156.133 49.3602 155.63 49.7946 154.982 50.0879C154.335 50.3867 153.582 50.5361 152.725 50.5361C152.348 50.5361 151.95 50.4863 151.529 50.3867C151.114 50.2871 150.716 50.1322 150.334 49.9219C149.958 49.7116 149.642 49.446 149.388 49.125L150.442 47.7139C150.719 48.0348 151.04 48.2839 151.405 48.4609C151.77 48.6436 152.174 48.7349 152.617 48.7349C153.048 48.7349 153.414 48.6546 153.712 48.4941C154.011 48.3392 154.241 48.1095 154.401 47.8052C154.562 47.5063 154.642 47.1439 154.642 46.7178V40.0938L154.875 38.0186ZM148.832 42.6172V42.4429C148.832 41.7567 148.915 41.1341 149.081 40.5752C149.252 40.0107 149.493 39.5265 149.803 39.1226C150.118 38.7186 150.5 38.4059 150.948 38.1846C151.396 37.9632 151.903 37.8525 152.467 37.8525C153.065 37.8525 153.566 37.9632 153.97 38.1846C154.374 38.4059 154.706 38.7214 154.966 39.1309C155.226 39.5348 155.428 40.0135 155.572 40.5669C155.721 41.1147 155.837 41.7152 155.92 42.3682V42.75C155.837 43.3753 155.713 43.9564 155.547 44.4932C155.381 45.0299 155.162 45.5003 154.891 45.9043C154.62 46.3027 154.282 46.6126 153.878 46.834C153.48 47.0553 153.004 47.166 152.451 47.166C151.897 47.166 151.396 47.0526 150.948 46.8257C150.506 46.5988 150.126 46.2806 149.811 45.8711C149.496 45.4616 149.252 44.9801 149.081 44.4268C148.915 43.8734 148.832 43.2702 148.832 42.6172ZM151.222 42.4429V42.6172C151.222 42.988 151.258 43.3338 151.33 43.6548C151.402 43.9757 151.513 44.2607 151.662 44.5098C151.817 44.7533 152.008 44.9442 152.235 45.0825C152.467 45.2153 152.741 45.2817 153.057 45.2817C153.494 45.2817 153.851 45.1904 154.127 45.0078C154.404 44.8197 154.612 44.5623 154.75 44.2358C154.888 43.9093 154.969 43.533 154.991 43.1069V42.0195C154.98 41.6709 154.933 41.3582 154.85 41.0815C154.767 40.7993 154.65 40.5586 154.501 40.3594C154.352 40.1602 154.158 40.0052 153.92 39.8945C153.682 39.7839 153.4 39.7285 153.073 39.7285C152.758 39.7285 152.484 39.8005 152.251 39.9443C152.025 40.0827 151.834 40.2736 151.679 40.5171C151.529 40.7606 151.416 41.0483 151.338 41.3804C151.261 41.7069 151.222 42.061 151.222 42.4429Z" fill="#4A3AFF"/>
</svg>
